# xmcd CD database file
#
# Track frame offsets:
#	150
#	43647
#	71311
#	98793
#	138595
#	167737
#	198024
#
# Disc length: 3022 seconds
#
# Revision: 0
# Processed by: cddbd v1.5.1PL0 Copyright (c) Steve Scherf et al.
# Submitted via: CDex 1.51
#
DISCID=570bcc07
DTITLE=Art Blakey - the big beat
DYEAR=1900
DGENRE=Jazz
TTITLE0=the chess players
TTITLE1=sakeena´s vision
TTITLE2=politely
TTITLE3=dat dere
TTITLE4=lester left down
TTITLE5=it´s only a paper moon
TTITLE6=it´s only a paper moon (alterate take)
EXTD=
EXTT0=
EXTT1=
EXTT2=
EXTT3=
EXTT4=
EXTT5=
EXTT6=
PLAYORDER=
